<?xml version="1.0" encoding="UTF-8"?>
<svg width="24px" height="18px" viewBox="0 0 24 18" version="1.1" xmlns="http://www.w3.org/2000/svg" xmlns:xlink="http://www.w3.org/1999/xlink">
    <!-- Generator: Sketch 58 (84663) - https://sketch.com -->
    <title>fork</title>
    <desc>Created with Sketch.</desc>
    <g id="Page-1" stroke="none" stroke-width="1" fill="none" fill-rule="evenodd">
        <g id="Mobile" transform="translate(-150.000000, -269.000000)" fill="#444444" fill-rule="nonzero">
            <g id="item" transform="translate(25.000000, 222.000000)">
                <g id="fork" transform="translate(125.000000, 47.000000)">
                    <path d="M21,12 C19.89,12 18.93,12.6 18.39,13.5 L18,13.5 C15.63,13.5 14.46,12.36 12.99,10.92 C12.33,10.29 11.64,9.6 10.83,9.03 C11.73,8.43 12.45,7.71 13.11,7.05 C14.55,5.64 15.69,4.5 18,4.5 L18.39,4.5 C18.9,5.4 19.89,6 21,6 C22.65,6 24,4.65 24,3 C24,1.35 22.65,0 21,0 C19.89,0 18.93,0.6 18.39,1.5 L18,1.5 C14.46,1.5 12.63,3.3 11.01,4.92 C9.54,6.36 8.37,7.5 6,7.5 L5.61,7.5 C5.1,6.6 4.11,6 3,6 C1.35,6 0,7.35 0,9 C0,10.65 1.35,12 3,12 C4.11,12 5.07,11.4 5.61,10.5 L6,10.5 C8.31,10.5 9.45,11.64 10.89,13.05 C12.45,14.58 14.4,16.5 18,16.5 L18.39,16.5 C18.9,17.4 19.89,18 21,18 C22.65,18 24,16.65 24,15 C24,13.35 22.65,12 21,12 Z M21,1.2 C21.99,1.2 22.8,2.01 22.8,3 C22.8,3.99 21.99,4.8 21,4.8 C20.01,4.8 19.2,3.99 19.2,3 C19.2,2.01 20.01,1.2 21,1.2 Z M3,10.8 C2.01,10.8 1.2,9.99 1.2,9 C1.2,8.01 2.01,7.2 3,7.2 C3.99,7.2 4.8,8.01 4.8,9 C4.8,9.99 3.99,10.8 3,10.8 Z M21,16.8 C20.01,16.8 19.2,15.99 19.2,15 C19.2,14.01 20.01,13.2 21,13.2 C21.99,13.2 22.8,14.01 22.8,15 C22.8,15.99 21.99,16.8 21,16.8 Z" id="Shape"></path>
                </g>
            </g>
        </g>
    </g>
</svg>