<?xml version="1.0" encoding="UTF-8"?>
<svg width="26px" height="26px" viewBox="0 0 26 26" version="1.1" xmlns="http://www.w3.org/2000/svg" xmlns:xlink="http://www.w3.org/1999/xlink">
    <!-- Generator: Sketch 58 (84663) - https://sketch.com -->
    <title>search</title>
    <desc>Created with Sketch.</desc>
    <g id="Page-1" stroke="none" stroke-width="1" fill="none" fill-rule="evenodd">
        <g id="Mobile" transform="translate(-42.000000, -149.000000)" fill="#FFFFFF" fill-rule="nonzero">
            <g id="Group" transform="translate(25.000000, 132.000000)">
                <g id="search" transform="translate(17.000000, 17.000000)">
                    <path d="M9.99999619,0 C15.5117,0 19.9999962,4.48828 19.9999962,10 C19.9999962,12.3945 19.1602,14.5898 17.75,16.3125 L25.7188,24.2812 L24.2812,25.7188 L16.3125,17.75 C14.5898,19.1602 12.3945,20 9.99999619,20 C4.48828,20 -3.8147e-06,15.5117 -3.8147e-06,10 C-3.8147e-06,4.48828 4.48828,0 9.99999619,0 Z M10,2 C5.57031,2 2,5.57031 2,10 C2,14.4297 5.57031,18 10,18 C14.4297,18 18,14.4297 18,10 C18,5.57031 14.4297,2 10,2 Z" id="Shape"></path>
                </g>
            </g>
        </g>
    </g>
</svg>