<?xml version="1.0" encoding="UTF-8"?>
<svg width="18px" height="18px" viewBox="0 0 18 18" version="1.1" xmlns="http://www.w3.org/2000/svg" xmlns:xlink="http://www.w3.org/1999/xlink">
    <!-- Generator: Sketch 58 (84663) - https://sketch.com -->
    <title>star</title>
    <desc>Created with Sketch.</desc>
    <g id="Page-1" stroke="none" stroke-width="1" fill="none" fill-rule="evenodd">
        <g id="Mobile" transform="translate(-40.000000, -269.000000)" fill="#FFC107" fill-rule="nonzero">
            <g id="item" transform="translate(25.000000, 222.000000)">
                <g id="star" transform="translate(15.000000, 47.000000)">
                    <path d="M17.9530423,6.91766903 C17.8352112,6.55735435 17.5119309,6.30144134 17.1294603,6.26736485 L11.9341779,5.8010194 L9.87982347,1.04755385 C9.72834593,0.699186336 9.38336709,0.473684211 9.00007253,0.473684211 C8.61677796,0.473684211 8.27179913,0.699186336 8.12032155,1.04836845 L6.06596709,5.8010194 L0.86986077,6.26736485 C0.488076834,6.3022559 0.165620539,6.55735435 0.0471027218,6.91766903 C-0.0714150951,7.27798368 0.0380387699,7.67318942 0.326848686,7.9223143 L4.25386691,11.3269756 L3.09588063,16.3696161 C3.01114659,16.7403845 3.15671883,17.1236431 3.46791393,17.3460227 C3.63518474,17.465494 3.83088331,17.5263158 4.02822987,17.5263158 C4.19838465,17.5263158 4.36716608,17.480971 4.51864366,17.3913675 L9.00007253,14.7435842 L13.4798534,17.3913675 C13.8076657,17.586323 14.2208987,17.5685381 14.5314071,17.3460227 C14.8427395,17.1229643 14.9881745,16.7395699 14.9034404,16.3696161 L13.7454541,11.3269756 L17.6724724,7.92299311 C17.9612823,7.67318942 18.0715601,7.27866249 17.9530423,6.91766903 Z" id="Path"></path>
                </g>
            </g>
        </g>
    </g>
</svg>